<svg width="274" height="75" viewBox="0 0 274 75" fill="none" xmlns="http://www.w3.org/2000/svg">
<path d="M39.766 31.4499C43.1414 31.4499 45.8254 34.1704 45.8254 37.5C45.8254 40.8296 43.1006 43.5501 39.766 43.5501C36.4314 43.5501 33.7066 40.8296 33.7066 37.5C33.7066 34.1704 36.3906 31.4499 39.766 31.4499ZM39.766 12C27.8914 12 17.8873 20.121 15.0407 31.125C15 31.2062 15 31.328 15 31.4093C15 32.0589 15.5287 32.6274 16.22 32.6274H26.5086C26.9966 32.6274 27.4034 32.3431 27.6066 31.9371V31.8965C29.7214 27.3081 34.3574 24.1409 39.7254 24.1409C47.1266 24.1409 53.1046 30.1099 53.1046 37.5C53.1046 44.8901 47.1266 50.8591 39.7254 50.8591C34.3574 50.8591 29.7214 47.6919 27.6066 43.1035L27.566 43.0629C27.3626 42.6163 26.956 42.3726 26.468 42.3726H16.22C15.5287 42.3726 15 42.9005 15 43.5907C15 43.7126 15 43.7938 15.0407 43.875C17.8873 54.879 27.8506 63 39.766 63C53.8774 63 65.3046 51.59 65.3046 37.5C65.3046 23.41 53.8366 12 39.766 12ZM106.5 43.4689H103.043C102.799 43.4689 102.596 43.5907 102.433 43.7532C100.4 46.7173 97.0246 48.6664 93.1206 48.6664C86.9394 48.6664 81.8966 43.6314 81.8966 37.4594C81.8966 31.2874 86.8986 26.2524 93.1206 26.2524C96.984 26.2524 100.4 28.2015 102.433 31.2062C102.555 31.4093 102.799 31.4905 103.043 31.4905H106.5C106.907 31.4905 107.232 31.1656 107.232 30.7595C107.232 30.6377 107.191 30.5159 107.151 30.4347C104.548 25.3185 99.2614 21.8264 93.1206 21.8264C84.4586 21.8264 77.4234 28.8511 77.4234 37.5C77.4234 46.1489 84.4586 53.1736 93.1206 53.1736C99.2614 53.1736 104.548 49.6815 107.151 44.5653C107.191 44.4435 107.232 44.3623 107.232 44.2405C107.232 43.7938 106.907 43.4689 106.5 43.4689ZM116.951 16.5884C116.951 18.2532 115.61 19.5931 113.942 19.5931C112.274 19.5931 110.933 18.2532 110.933 16.5884C110.933 14.9236 112.274 13.5836 113.942 13.5836C115.61 13.5836 116.951 14.9236 116.951 16.5884ZM116.219 51.6712V22.5573H111.746V51.6712C111.746 52.0772 112.071 52.4021 112.478 52.4021H115.487C115.854 52.4427 116.219 52.1179 116.219 51.6712ZM135.658 21.8264C131.144 22.0295 127.525 24.1815 125.166 27.5111V23.3288C125.166 22.9228 124.841 22.5979 124.434 22.5979H121.425C121.018 22.5979 120.693 22.9228 120.693 23.3288V51.7118C120.693 52.1179 121.018 52.4427 121.425 52.4427H124.434C124.841 52.4427 125.166 52.1179 125.166 51.7118V37.5406C125.166 31.6123 129.802 26.7397 135.618 26.3742C136.024 26.3742 136.35 26.0493 136.35 25.6433V22.6385C136.39 22.1919 136.065 21.8264 135.658 21.8264ZM165.466 43.4689H162.01C161.766 43.4689 161.562 43.5907 161.4 43.7532C159.366 46.7173 155.991 48.6664 152.087 48.6664C145.906 48.6664 140.863 43.6314 140.863 37.4594C140.863 31.2874 145.866 26.2524 152.087 26.2524C155.95 26.2524 159.366 28.2015 161.4 31.2062C161.522 31.4093 161.766 31.4905 162.01 31.4905H165.466C165.874 31.4905 166.198 31.1656 166.198 30.7595C166.198 30.6377 166.158 30.5159 166.118 30.4347C163.514 25.3185 158.228 21.8264 152.087 21.8264C143.426 21.8264 136.39 28.8511 136.39 37.5C136.39 46.1489 143.426 53.1736 152.087 53.1736C158.228 53.1736 163.514 49.6815 166.118 44.5653C166.158 44.4435 166.198 44.3623 166.198 44.2405C166.198 43.7938 165.874 43.4689 165.466 43.4689ZM174.454 12.8527H171.445C171.038 12.8527 170.713 13.1775 170.713 13.5836V51.6712C170.713 52.0772 171.038 52.4021 171.445 52.4021H174.454C174.861 52.4021 175.186 52.0772 175.186 51.6712V13.5836C175.186 13.1775 174.861 12.8527 174.454 12.8527ZM195.357 21.8264C186.694 21.8264 179.659 28.8511 179.659 37.5C179.659 46.1489 186.694 53.1736 195.357 53.1736C201.498 53.1736 206.784 49.6815 209.386 44.5653C209.59 44.1999 209.427 43.7532 209.062 43.5501C208.939 43.5095 208.818 43.4689 208.695 43.4689H205.238C204.994 43.4689 204.791 43.5907 204.629 43.7938C202.595 46.7579 199.22 48.707 195.357 48.707C189.663 48.707 184.986 44.4841 184.254 39.0024H210.322C210.729 39.0024 211.054 38.6775 211.054 38.3121C211.054 38.0685 211.094 37.7843 211.094 37.5406C211.094 28.8511 204.059 21.8264 195.357 21.8264ZM184.58 34.4952C185.882 29.7444 190.233 26.293 195.398 26.293C200.562 26.293 204.914 29.785 206.214 34.4952H184.58ZM254.526 12.1218C252.046 12.1218 250.054 14.1115 250.054 16.5884C250.054 19.0653 252.046 21.0549 254.526 21.0549C257.007 21.0549 259 19.0653 259 16.5884C259 14.1115 257.007 12.1218 254.526 12.1218ZM258.268 22.5573V51.6712C258.268 52.0772 257.942 52.4021 257.536 52.4021H251.558C251.151 52.4021 250.826 52.0772 250.826 51.6712V22.5573H258.268ZM231.266 53.1736C238.586 53.1736 244.766 48.1385 246.474 41.3981C246.474 41.3575 246.474 41.3169 246.474 41.2357C246.474 40.8296 246.15 40.5048 245.742 40.5048H239.398C239.114 40.5048 238.83 40.6672 238.707 40.9515C237.406 43.7938 234.559 45.7429 231.225 45.7429C226.67 45.7429 223.01 42.0478 223.01 37.5406C223.01 33.0335 226.71 29.3384 231.225 29.3384C234.438 29.3384 237.366 31.2062 238.707 34.1298C238.83 34.414 239.074 34.5764 239.398 34.5764H245.742C246.15 34.5764 246.474 34.2516 246.474 33.8455C246.474 33.8049 246.474 33.7643 246.474 33.6831C244.726 26.9021 238.586 21.8671 231.266 21.8671C222.603 21.8671 215.568 28.8917 215.568 37.5406C215.568 46.1489 222.603 53.1736 231.266 53.1736Z" fill="#2D2D2D" fill-opacity="0.7"/>
</svg>
