<svg width="274" height="75" viewBox="0 0 274 75" fill="none" xmlns="http://www.w3.org/2000/svg">
<mask id="mask0_215_157" style="mask-type:luminance" maskUnits="userSpaceOnUse" x="25" y="5" width="65" height="65">
<path d="M89.54 5H25V69.54H89.54V5Z" fill="white"/>
</mask>
<g mask="url(#mask0_215_157)">
<path fill-rule="evenodd" clip-rule="evenodd" d="M57.27 5C75.0927 5 89.54 19.8117 89.54 38.0863C89.54 52.7013 80.3043 65.0996 67.4899 69.4785C65.8538 69.8045 65.273 68.7713 65.273 67.8903C65.273 66.7995 65.3117 63.2371 65.3117 58.8097C65.3117 55.7246 64.279 53.7112 63.1206 52.6849C70.3071 51.8653 77.8583 49.0672 77.8583 36.3593C77.8583 32.745 76.6062 29.7957 74.5345 27.4788C74.8701 26.6429 75.9769 23.2776 74.2182 18.7211C74.2182 18.7211 71.514 17.8345 65.3536 22.1135C62.7753 21.381 60.013 21.0124 57.27 20.9995C54.5271 21.0124 51.768 21.381 49.1929 22.1135C43.026 17.8345 40.3153 18.7211 40.3153 18.7211C38.5631 23.2776 39.6699 26.6429 40.0024 27.4788C37.9403 29.7957 36.6786 32.745 36.6786 36.3593C36.6786 49.0349 44.2136 51.8759 51.3808 52.7117C50.4579 53.5378 49.622 54.9951 49.3316 57.1346C47.4922 57.9802 42.8195 59.4434 39.941 54.3867C39.941 54.3867 38.234 51.2077 34.9941 50.9753C34.9941 50.9753 31.8477 50.9335 34.7745 52.9859C34.7745 52.9859 36.8883 54.0024 38.3565 57.8264C38.3565 57.8264 40.2508 63.7317 49.2283 61.731C49.2445 64.4965 49.2735 67.1029 49.2735 67.8903C49.2735 68.7649 48.6797 69.7883 47.0694 69.4817C34.2453 65.1091 25 52.7045 25 38.0863C25 19.8117 39.4505 5 57.27 5Z" fill="#2D2D2D" fill-opacity="0.7"/>
</g>
<path d="M133.869 35.264H121.712C121.401 35.264 121.144 35.5089 121.144 35.8161V41.5863C121.144 41.8934 121.396 42.1383 121.712 42.1383H126.455V49.3154C126.455 49.3154 125.391 49.6627 122.45 49.6627C118.977 49.6627 114.124 48.4249 114.124 38.069C114.124 27.7041 119.174 26.3417 123.917 26.3417C128.023 26.3417 129.79 27.0407 130.913 27.3835C131.266 27.4904 131.587 27.1475 131.587 26.8404L132.943 21.2617C132.943 21.1192 132.894 20.9456 132.728 20.8298C132.269 20.5181 129.483 19 122.441 19C114.326 19 106 22.3525 106 38.4786C106 54.6046 115.526 57 123.559 57C130.207 57 134.244 54.2395 134.244 54.2395C134.41 54.1506 134.429 53.9278 134.429 53.8256V35.8161C134.423 35.5089 134.172 35.264 133.859 35.264H133.869ZM195.339 20.3757H188.497C188.181 20.3757 187.93 20.625 187.93 20.9278V33.777H177.262V20.9278C177.262 20.6206 177.005 20.3757 176.698 20.3757H169.852C169.546 20.3757 169.294 20.625 169.294 20.9278V55.7177C169.294 56.0249 169.546 56.2742 169.852 56.2742H176.698C177.01 56.2742 177.262 56.0249 177.262 55.7177V40.8383H187.93L187.907 55.7177C187.907 56.0249 188.158 56.2698 188.466 56.2698H195.311C195.627 56.2698 195.871 56.0204 195.871 55.7177L195.893 20.9234C195.898 20.6161 195.642 20.3712 195.334 20.3712L195.339 20.3757ZM142.044 21.1637C139.606 21.1637 137.631 23.1005 137.631 25.4913C137.631 27.8822 139.606 29.8234 142.044 29.8234C144.481 29.8234 146.456 27.8866 146.456 25.4913C146.456 23.1005 144.481 21.1637 142.044 21.1637ZM145.971 32.3256C145.971 32.0228 145.719 31.769 145.411 31.769H138.588C138.268 31.769 137.997 32.0807 137.997 32.3879C137.997 32.3879 137.997 51.7151 137.997 55.3972C137.997 56.0695 138.428 56.2742 138.992 56.2742C138.992 56.2742 141.901 56.2742 145.141 56.2742C145.811 56.2742 145.989 55.9536 145.989 55.3837C145.984 54.1506 145.984 49.3198 145.984 48.3849C145.98 47.4944 145.98 32.3256 145.98 32.3256H145.971ZM221.828 31.8225H215.037C214.727 31.8225 214.479 32.0718 214.479 32.3789V49.4355C214.479 49.4355 212.756 50.6689 210.3 50.6689C207.853 50.6689 207.197 49.5914 207.197 47.254C207.197 44.9255 207.197 32.3745 207.197 32.3745C207.197 32.0674 206.942 31.818 206.634 31.818H199.748C199.431 31.818 199.184 32.0674 199.184 32.3745C199.184 32.3745 199.184 41.4571 199.184 48.3804C199.184 55.3036 203.152 56.9956 208.609 56.9956C213.086 56.9956 216.706 54.5913 216.706 54.5913C216.706 54.5913 216.875 55.8558 216.958 56.0027C217.031 56.154 217.233 56.3054 217.452 56.3054H221.815C222.127 56.3054 222.378 56.0561 222.378 55.7488L222.397 32.3745C222.384 32.0718 222.127 31.8225 221.82 31.8225H221.828ZM240.423 31.0389C236.565 31.0389 233.945 32.7129 233.945 32.7129V20.9322C233.945 20.625 233.688 20.3801 233.385 20.3801H226.516C226.21 20.3801 225.957 20.6294 225.957 20.9322L225.939 55.7266C225.939 56.0339 226.196 56.2786 226.503 56.2786C226.503 56.2786 231.282 56.2786 231.286 56.2786C231.498 56.2786 231.658 56.1718 231.782 55.9848C231.905 55.7979 232.069 54.3776 232.069 54.3776C232.069 54.3776 234.87 56.9644 240.185 56.9644C246.426 56.9644 250 53.8878 250 43.1579C250 32.4413 244.281 31.0389 240.423 31.0389ZM237.748 50.6465C235.392 50.5753 233.798 49.538 233.798 49.538V38.5142C233.798 38.5142 235.373 37.5747 237.312 37.4055C239.759 37.1964 242.124 37.9132 242.124 43.5809C242.109 49.5558 241.046 50.7357 237.752 50.6421L237.748 50.6465ZM165.743 50.5175C165.44 50.5175 164.675 50.6332 163.886 50.6332C161.371 50.6332 160.51 49.4935 160.51 48.0197C160.51 46.5416 160.51 38.2337 160.51 38.2337H165.646C165.962 38.2337 166.21 37.9888 166.21 37.6772V32.3167C166.215 32.0094 165.962 31.7601 165.646 31.7601H160.51L160.5 25.1708C160.5 24.9215 160.363 24.7967 160.07 24.7967H153.077C152.807 24.7967 152.656 24.9126 152.656 25.1664V31.9738C152.656 31.9738 149.151 32.7975 148.913 32.8643C148.675 32.9311 148.509 33.1448 148.509 33.3941V37.6772C148.509 37.9844 148.766 38.2337 149.073 38.2337H152.656C152.656 38.2337 152.656 42.7082 152.656 48.5273C152.656 56.1718 158.177 56.9242 161.902 56.9242C163.603 56.9242 165.638 56.3855 165.977 56.2698C166.183 56.1985 166.297 55.9937 166.297 55.7755L166.301 51.0695C166.301 50.7624 166.036 50.5175 165.743 50.5175Z" fill="#2D2D2D" fill-opacity="0.7"/>
</svg>
