<svg width="274" height="75" viewBox="0 0 274 75" fill="none" xmlns="http://www.w3.org/2000/svg">
<path d="M118.776 31.6247H125.874C124.691 24.0703 118.156 18.8086 109.649 18.8086C99.5825 18.8086 92.033 26.2126 92.033 38.6152C92.033 50.7925 99.2445 58.3469 109.855 58.3469C119.377 58.3469 126.194 52.2207 126.194 42.2984V37.6756H110.588V43.1254H119.452C119.339 48.6126 115.677 52.0891 109.893 52.0891C103.451 52.0891 99.0379 47.2596 99.0379 38.5401C99.0379 29.877 103.526 25.0663 109.742 25.0663C114.381 25.0663 117.536 27.5468 118.776 31.6247Z" fill="#2D2D2D" fill-opacity="0.7"/>
<path d="M130.886 57.8207H137.684V28.9561H130.886V57.8207ZM134.304 24.3853C136.464 24.3853 138.229 22.7315 138.229 20.702C138.229 18.6537 136.464 17 134.304 17C132.125 17 130.36 18.6537 130.36 20.702C130.36 22.7315 132.125 24.3853 134.304 24.3853Z" fill="#2D2D2D" fill-opacity="0.7"/>
<path d="M158.041 28.9555H152.351V22.04H145.553V28.9555H141.458V34.2172H145.553V50.2656C145.516 55.6964 149.459 58.3649 154.567 58.2145C156.502 58.1583 157.835 57.7823 158.568 57.538L157.422 52.2199C157.046 52.3139 156.276 52.483 155.431 52.483C153.722 52.483 152.351 51.8817 152.351 49.138V34.2172H158.041V28.9555Z" fill="#2D2D2D" fill-opacity="0.7"/>
<path d="M163.303 57.8201H187.211V51.9757H170.271V19.334H163.303V57.8201Z" fill="#2D2D2D" fill-opacity="0.7"/>
<path d="M200.23 58.403C204.756 58.403 207.461 56.2795 208.699 53.8554H208.926V57.8205H215.461V38.5023C215.461 30.8727 209.245 28.5801 203.742 28.5801C197.676 28.5801 193.019 31.2861 191.517 36.5479L197.864 37.45C198.54 35.4768 200.455 33.7855 203.779 33.7855C206.934 33.7855 208.662 35.4016 208.662 38.2392V38.352C208.662 40.3063 206.615 40.4003 201.526 40.9452C195.929 41.5466 190.577 43.2191 190.577 49.7211C190.577 55.3963 194.728 58.403 200.23 58.403ZM202.465 53.4044C199.629 53.4044 197.601 52.1076 197.601 49.6083C197.601 46.9962 199.874 45.9063 202.917 45.4741C204.701 45.2298 208.268 44.7788 209.151 44.0647V47.466C209.151 50.6794 206.56 53.4044 202.465 53.4044Z" fill="#2D2D2D" fill-opacity="0.7"/>
<path d="M220.475 57.8201H227.161V53.2723H227.555C228.626 55.377 230.861 58.3273 235.818 58.3273C242.618 58.3273 247.706 52.9341 247.706 43.4254C247.706 33.8038 242.467 28.5797 235.8 28.5797C230.711 28.5797 228.589 31.6428 227.555 33.7287H227.275V19.334H220.475V57.8201ZM227.142 43.3878C227.142 37.7877 229.547 34.1609 233.922 34.1609C238.448 34.1609 240.777 38.0132 240.777 43.3878C240.777 48.7999 238.411 52.7462 233.922 52.7462C229.584 52.7462 227.142 48.9878 227.142 43.3878Z" fill="#2D2D2D" fill-opacity="0.7"/>
<path d="M74.7298 32.5175L74.6633 32.3433L68.0558 15.0932C67.9238 14.7552 67.6863 14.4705 67.3772 14.2739C67.0692 14.0762 66.7079 13.983 66.3416 14.0025C65.9771 14.022 65.6271 14.1551 65.3415 14.3824C65.058 14.6119 64.8534 14.9222 64.7572 15.2724L60.2959 28.9352H42.2461L37.7848 15.2724C37.6886 14.9222 37.4839 14.6119 37.2005 14.3824C36.9149 14.1551 36.5649 14.022 36.2005 14.0025C35.8342 13.983 35.4729 14.0762 35.1648 14.2739C34.8558 14.4705 34.6183 14.7552 34.4862 15.0932L27.8788 32.3444L27.8123 32.5175C25.8544 37.6278 27.5226 43.4048 31.8826 46.7045C31.8908 46.7096 31.8979 46.7158 31.9061 46.7219L31.9645 46.766L42.0291 54.3055L47.0073 58.0762L50.0367 60.3682C50.7665 60.9213 51.7756 60.9213 52.5053 60.3682L55.5347 58.0762L60.5118 54.3055L70.6359 46.7219C70.6452 46.7147 70.6533 46.7086 70.6625 46.7014C75.0195 43.4018 76.6867 37.6268 74.7298 32.5175Z" fill="#2D2D2D" fill-opacity="0.7"/>
</svg>
