<svg width="274" height="75" viewBox="0 0 274 75" fill="none" xmlns="http://www.w3.org/2000/svg">
<path d="M67.3148 26.9211C67 26.9211 66.9213 26.7632 67.0787 26.5263L68.7309 24.3947C68.8883 24.1578 69.2817 24 69.5964 24H97.6852C98 24 98.0787 24.2368 97.9213 24.4737L96.5838 26.5263C96.4264 26.7632 96.033 27 95.7969 27L67.3148 26.9211Z" fill="#2D2D2D" fill-opacity="0.7"/>
<path d="M56.3075 34C56 34 55.9231 33.8378 56.0769 33.5946L57.6914 31.4054C57.8452 31.1622 58.2296 31 58.5372 31H93.596C93.9035 31 94.0572 31.2432 93.9804 31.4865L93.3654 33.4324C93.2885 33.7568 92.9809 33.9189 92.6734 33.9189L56.3075 34Z" fill="#2D2D2D" fill-opacity="0.7"/>
<path d="M75.2944 41.8947C75 41.8947 74.9264 41.5789 75.0736 41.2631L76.104 38.6316C76.2511 38.3158 76.5455 38 76.8399 38H91.5585C91.8529 38 92 38.3158 92 38.7368L91.8529 41.2631C91.8529 41.6842 91.5585 42 91.3377 42L75.2944 41.8947Z" fill="#2D2D2D" fill-opacity="0.7"/>
<path d="M154.477 25.246C149.661 26.4586 146.375 27.3682 141.636 28.5808C140.489 28.8841 140.413 28.9598 139.419 27.8229C138.272 26.5344 137.431 25.7007 135.826 24.9427C131.011 22.5931 126.348 23.2753 121.991 26.0796C116.793 29.4146 114.117 34.3412 114.194 40.4806C114.27 46.544 118.474 51.5464 124.513 52.3802C129.711 53.0624 134.068 51.2433 137.508 47.3778C138.196 46.544 138.807 45.6345 139.572 44.5734C136.82 44.5734 133.38 44.5734 124.819 44.5734C123.214 44.5734 122.831 43.5881 123.367 42.2996C124.36 39.95 126.195 36.0087 127.265 34.038C127.494 33.5833 128.029 32.8253 129.176 32.8253C133.074 32.8253 147.445 32.8253 157 32.8253C156.847 34.8718 156.847 36.9182 156.541 38.9647C155.7 44.4218 153.637 49.4242 150.273 53.8203C144.77 61.0207 137.584 65.4926 128.488 66.7053C120.997 67.6906 114.041 66.2505 107.926 61.7029C102.269 57.4584 99.0588 51.8497 98.2179 44.8766C97.2242 36.6151 99.6703 29.1872 104.715 22.6689C110.143 15.6201 117.328 11.1483 126.118 9.55659C133.304 8.26806 140.183 9.10182 146.375 13.2705C150.426 15.9233 153.331 19.5614 155.242 23.9574C155.7 24.6396 155.395 25.0186 154.477 25.246Z" fill="#2D2D2D" fill-opacity="0.7"/>
<path d="M184.363 67C177.389 66.8523 171.028 64.9317 165.663 60.4994C161.142 56.732 158.305 51.9304 157.386 46.2424C156.007 37.8951 158.382 30.508 163.594 23.9335C169.189 16.842 175.933 13.1484 185.053 11.5971C192.871 10.2675 200.229 11.0061 206.897 15.3645C212.951 19.3535 216.706 24.7461 217.703 31.8376C219.006 41.8101 216.017 49.9359 208.889 56.8797C203.831 61.8291 197.623 64.9317 190.495 66.3352C188.426 66.7045 186.357 66.7784 184.363 67ZM202.605 37.1563C202.527 36.196 202.527 35.4573 202.374 34.7186C200.995 27.4054 194.021 23.2687 186.739 24.8938C179.612 26.4451 175.014 30.8035 173.328 37.7473C171.948 43.5092 174.86 49.3449 180.379 51.7088C184.594 53.4817 188.809 53.2601 192.871 51.2656C198.925 48.237 202.221 43.5092 202.605 37.1563Z" fill="#2D2D2D" fill-opacity="0.7"/>
</svg>