<svg width="274" height="75" viewBox="0 0 274 75" fill="none" xmlns="http://www.w3.org/2000/svg">
<path fill-rule="evenodd" clip-rule="evenodd" d="M52.9406 57.7403C52.9406 57.7403 49.6236 59.3707 55.3037 59.9214C62.1869 60.5854 65.7027 60.4899 73.2855 59.2782C73.2855 59.2782 75.2819 60.3341 78.0686 61.2475C61.0652 67.4021 39.587 60.8915 52.9406 57.7403ZM50.8621 49.709C50.8621 49.709 47.1409 52.0355 52.826 52.5322C60.179 53.1736 65.983 53.2259 76.0326 51.5925C76.0326 51.5925 77.4202 52.7823 79.6039 53.4322C59.0486 58.5108 36.1554 53.8321 50.8621 49.709Z" fill="#2D2D2D" fill-opacity="0.7"/>
<path fill-rule="evenodd" clip-rule="evenodd" d="M68.3108 35.6085C72.4698 39.7352 67.2207 43.4465 67.2207 43.4465C67.2207 43.4465 77.7761 38.7505 72.928 32.8676C68.4016 27.384 64.9296 24.6597 83.7235 15.2651C83.7235 15.2651 54.222 21.6138 68.3108 35.6085Z" fill="#2D2D2D" fill-opacity="0.7"/>
<path fill-rule="evenodd" clip-rule="evenodd" d="M91.0308 63.8795C91.0308 63.8795 93.5062 65.6314 88.304 66.9862C78.4117 69.558 47.1237 70.3336 38.4328 67.0885C35.3109 65.9214 41.1683 64.3035 43.0111 63.9618C44.933 63.6052 46.0298 63.67 46.0298 63.67C42.5557 61.5702 23.5737 67.7943 36.3896 69.5798C71.3363 74.4436 100.094 67.3903 91.0308 63.8795ZM54.4055 41.0396C54.4055 41.0396 38.4924 44.2847 48.7711 45.4644C53.1125 45.9625 61.7606 45.8478 69.8225 45.2673C76.4092 44.7929 83.0205 43.7778 83.0205 43.7778C83.0205 43.7778 80.6998 44.6326 79.0182 45.6165C62.856 49.2656 31.6385 47.5661 40.6264 43.8359C48.2256 40.6805 54.4055 41.0396 54.4055 41.0396ZM82.9544 54.7352C99.3825 47.4095 91.787 40.3682 86.4838 41.3171C85.1873 41.5496 84.6054 41.7504 84.6054 41.7504C84.6054 41.7504 85.0891 41.1008 86.0087 40.8214C96.4981 37.6573 104.564 50.1559 82.6268 55.1055C82.6268 55.1055 82.8789 54.9098 82.9544 54.7352Z" fill="#2D2D2D" fill-opacity="0.7"/>
<path fill-rule="evenodd" clip-rule="evenodd" d="M73.1186 0C73.1186 0 82.3406 7.78719 64.3693 19.7579C49.9571 29.364 61.0835 34.8395 64.3649 41.0979C55.9507 34.6928 49.7789 29.0533 53.919 23.8059C59.9972 16.1032 76.8396 12.3678 73.1186 0Z" fill="#2D2D2D" fill-opacity="0.7"/>
<path fill-rule="evenodd" clip-rule="evenodd" d="M55.8604 74.5261C71.6745 75.3822 95.9639 74.0506 96.5402 67.7139C96.5402 67.7139 95.4342 70.1157 83.4691 72.0213C69.9697 74.1723 53.317 73.9218 43.4436 72.5421C43.4436 72.5421 45.4668 73.9593 55.8604 74.5261Z" fill="#2D2D2D" fill-opacity="0.7"/>
<path fill-rule="evenodd" clip-rule="evenodd" d="M232.894 28.4318H231.549V27.5464H235.177V28.4318H233.833V32.8538H232.894V28.4318ZM240.134 28.652H240.117L238.782 32.8514H238.169L236.839 28.652H236.823V32.8514H235.931V27.5441H237.241L238.472 31.2984L239.702 27.5441H241V32.8514H240.136L240.134 28.652ZM153.581 51.3511C150.929 53.4855 148.125 54.6862 145.607 54.6862C142.019 54.6862 140.073 52.6854 140.073 49.4838C140.073 46.0174 142.157 43.4812 150.497 43.4812H153.58L153.581 51.3511ZM160.903 59.0201V35.2792C160.903 29.2116 157.177 25.2075 148.192 25.2075C142.95 25.2075 138.355 26.4094 134.618 27.9411L135.694 32.1462C138.637 31.1427 142.442 30.2126 146.177 30.2126C151.353 30.2126 153.58 32.1462 153.58 36.1491V39.151H150.994C138.421 39.151 132.747 43.6797 132.747 50.4884C132.747 56.355 136.486 59.6902 143.524 59.6902C148.048 59.6902 151.428 57.9565 154.584 55.419L155.157 59.0201H160.903ZM185.34 59.0201H176.211L165.217 25.8115H173.193L180.015 46.2184L181.535 52.3498C184.977 43.4812 187.419 34.4779 188.641 25.8115H196.396C194.32 36.7459 190.58 48.7511 185.34 59.0201ZM220.378 51.3511C217.718 53.4855 214.914 54.6862 212.401 54.6862C208.814 54.6862 206.869 52.6854 206.869 49.4838C206.869 46.0174 208.955 43.4812 217.29 43.4812H220.378V51.3511ZM227.703 59.0201V35.2792C227.703 29.2116 223.964 25.2075 214.988 25.2075C209.741 25.2075 205.148 26.4094 201.411 27.9411L202.487 32.1462C205.43 31.1427 209.242 30.2126 212.979 30.2126C218.146 30.2126 220.377 32.1462 220.377 36.1491V39.151H217.79C205.216 39.151 199.547 43.6797 199.547 50.4884C199.547 56.355 203.277 59.6902 210.317 59.6902C214.845 59.6902 218.219 57.9565 221.382 55.419L221.96 59.0201H227.703ZM124.719 64.6629C122.633 67.494 119.258 69.7355 115.568 71L111.953 67.0464C114.764 65.7072 117.171 63.5452 118.292 61.5335C119.258 59.7407 119.661 57.4355 119.661 51.9178V14H127.443V51.3944C127.443 58.7746 126.808 61.7573 124.719 64.6629Z" fill="#2D2D2D" fill-opacity="0.7"/>
</svg>
