<svg width="274" height="75" viewBox="0 0 274 75" fill="none" xmlns="http://www.w3.org/2000/svg">
<mask id="mask0_215_189" style="mask-type:luminance" maskUnits="userSpaceOnUse" x="8" y="5" width="65" height="65">
<path d="M72.5366 5H8V69.5366H72.5366V5Z" fill="white"/>
</mask>
<g mask="url(#mask0_215_189)">
<path d="M43.4954 7.68896C35.6972 7.68896 30.1847 9.03341 26.4201 11.1847C25.0063 11.8948 23.7598 12.8974 22.763 14.1259C21.7663 15.3544 21.0422 16.7808 20.6386 18.3106C19.6822 18.9084 18.8952 19.7417 18.353 20.7307C17.1429 22.6131 16.7396 25.7054 17.8152 30.4112C17.013 30.9989 16.3376 31.7424 15.8293 32.5972C15.3211 33.4519 14.9905 34.4004 14.8573 35.3859C14.6764 36.565 14.7639 37.7697 15.1131 38.9104C15.4622 40.0509 16.0642 41.0981 16.874 41.974C18.0071 43.2529 19.5112 44.146 21.1765 44.5286C21.7143 44.663 21.7143 44.5286 22.1177 44.5286C22.6523 46.8582 23.4648 49.1153 24.5378 51.2512L18.2185 54.8814L13.5128 57.5704L11.8993 58.6459L11.3615 59.0493L11.0926 59.3183C11.0926 59.3183 10.8237 59.4527 10.8237 59.9905V60.9317L13.1094 66.8475H65.142L65.4109 65.7719C65.4109 65.7719 65.6799 64.024 66.0832 62.0073C66.4249 60.1892 66.6048 58.3445 66.621 56.4948C66.631 56.1607 66.5371 55.8319 66.3521 55.5536L65.9487 55.1502L64.8732 54.3435L62.1841 52.5956L59.4951 50.9822C60.6068 49.4983 61.5115 47.8699 62.1841 46.142C64.3892 40.4086 65.2182 34.2376 64.6042 28.1255C64.0665 20.5963 61.5119 15.3527 57.6128 12.1259C53.9716 9.2592 49.4741 7.69684 44.8399 7.68896H43.4954ZM44.4365 10.2435C48.6287 10.1472 52.7215 11.5274 55.9994 14.1426C57.7705 15.6575 59.1925 17.5381 60.1673 19.6551L58.6884 19.2517H54.9238L55.3271 21.8064C56.3069 21.6504 57.3052 21.6504 58.285 21.8064C59.0876 21.8327 59.8541 22.1455 60.446 22.688C61.0378 23.2305 61.4159 23.9671 61.5119 24.7642H61.6463C61.8171 25.5598 61.9071 26.3707 61.9152 27.1843C61.8194 26.7898 61.6356 26.4221 61.3774 26.1088L60.0329 23.8231L57.8817 25.0332C58.3316 25.7695 58.7358 26.5328 59.0917 27.3188C59.4348 27.7675 59.7069 28.2664 59.8984 28.7978C58.8448 28.7929 57.7995 28.6111 56.8061 28.26L55.9994 30.8145C57.3119 31.1823 58.6698 31.3633 60.0329 31.3524C60.6395 31.3607 61.2392 31.2223 61.7807 30.949H62.1841C62.3668 35.8593 61.5432 40.7551 59.764 45.3353C59.1008 47.0677 58.1955 48.6972 57.075 50.1755C56.1166 51.4734 54.8571 52.5186 53.4048 53.2213C51.9527 53.9239 50.3514 54.263 48.739 54.209C42.6887 54.209 37.1761 51.3856 35.4283 49.5033C34.3297 48.2418 33.5871 46.7103 33.2771 45.0664L30.7225 45.4697C31.1316 47.5344 32.1095 49.4438 33.546 50.9822C34.6216 52.0472 35.844 52.9527 37.1761 53.6713C36.4145 53.8126 35.7386 54.247 35.2939 54.8814C35.2453 54.9359 35.2082 54.9998 35.1851 55.0692C35.1619 55.1385 35.1532 55.2118 35.1594 55.2847C32.935 55.171 30.7894 54.4248 28.9747 53.1335C28.341 52.6473 27.7953 52.0561 27.3613 51.3856V51.1167C26.1868 48.9647 25.3266 46.6556 24.8067 44.2597C25.6705 43.5786 26.3615 42.7034 26.8234 41.7051L24.5378 40.495C24.2625 41.0839 23.8999 41.6279 23.4621 42.1084H23.0588C22.6509 42.1811 22.2307 42.1344 21.8487 41.974C20.638 41.7918 19.537 41.1695 18.7563 40.2261C18.2203 39.6035 17.8231 38.8737 17.5913 38.0854C17.3594 37.2971 17.2982 36.4686 17.4118 35.6548C17.4779 34.9118 17.7196 34.1953 18.117 33.5641C18.5143 32.9329 19.0561 32.4053 19.6975 32.0246C20.5097 31.4221 21.5131 31.1354 22.521 31.2179C22.7477 31.2671 22.9612 31.3647 23.1468 31.5039C23.3325 31.6431 23.4858 31.8207 23.5966 32.0246C23.9602 32.8802 24.187 33.7877 24.2688 34.7137V36.7304L29.378 34.1758V33.3691C29.3159 32.3097 29.089 31.2664 28.7057 30.2768C28.3915 29.0136 28.5344 27.68 29.1091 26.5121C29.7223 25.076 30.2169 23.592 30.5881 22.0752C30.878 20.8409 30.6857 19.5423 30.0503 18.445C30.6795 17.1326 31.5455 15.9475 32.6049 14.9493C34.1638 13.4159 36.0135 12.2097 38.0455 11.4015C40.0773 10.5934 42.2503 10.1996 44.4365 10.2435ZM32.7392 11.4535L30.7225 13.2014C29.6518 14.2216 28.7448 15.4006 28.0335 16.6971C26.4954 16.8775 24.969 17.1469 23.4621 17.5038C24.3693 15.7041 25.8303 14.2431 27.6301 13.3359C29.2665 12.5405 30.9781 11.91 32.7392 11.4535ZM39.9996 18.9829C39.0753 18.951 38.1547 19.1141 37.2976 19.4616C36.4405 19.809 35.6662 20.3331 35.025 20.9996C34.2198 21.8878 33.6227 22.9441 33.2771 24.092L35.8317 24.6298C35.9901 23.9075 36.3653 23.2507 36.9073 22.7474C37.714 21.9407 39.0585 21.134 42.0164 21.8064L42.5542 19.2517L39.9996 18.9829ZM27.4956 19.3862C27.7841 19.6561 27.9976 19.9962 28.1154 20.3732C28.2333 20.7502 28.2513 21.1513 28.168 21.5374C28.0335 22.3441 27.2268 23.9575 26.6889 25.5709C25.886 27.2976 25.7425 29.2583 26.2856 31.0835C26.4569 31.6114 26.5917 32.1504 26.6889 32.6969H26.4201C26.3197 31.9896 26.0919 31.3062 25.7478 30.6801C25.4862 30.1453 25.1093 29.6751 24.6445 29.3031C24.1795 28.9312 23.638 28.6668 23.0588 28.5289C22.0106 28.4139 20.9501 28.5522 19.9664 28.9322C19.2942 25.1676 19.8319 23.0164 20.5042 21.8064L21.5798 20.5963C23.5108 20.0134 25.4909 19.6083 27.4956 19.3862ZM44.7055 23.9575L42.2854 24.8987L43.2264 27.3188C43.5927 28.34 44.0424 29.3293 44.571 30.2768C43.5023 30.292 42.4445 30.062 41.4786 29.6045L40.403 32.0246C41.9039 32.7576 43.5858 33.0379 45.2432 32.8313C45.5956 32.7911 45.9348 32.6738 46.2369 32.488C46.5389 32.3021 46.7964 32.0521 46.9911 31.7557C47.2224 31.4195 47.3462 31.0209 47.3462 30.6128C47.3462 30.2047 47.2224 29.8063 46.9911 29.4701C46.4501 28.4822 46 27.4471 45.6466 26.3776L44.7055 23.9575ZM52.5036 25.7054H49.9491C50.2207 29.021 51.7621 32.1036 54.2515 34.3103C55.27 35.1779 56.1736 36.1719 56.9406 37.2682H56.8061C55.9123 37.9272 54.9117 38.4275 53.8481 38.7472C52.5999 39.2226 51.2835 39.495 49.9491 39.5539H49.6801C49.7116 39.3274 49.7565 39.1028 49.8146 38.8816L47.529 37.9405C47.2769 38.4895 47.1396 39.0843 47.1256 39.6883C47.1719 40.3246 47.4059 40.9328 47.7978 41.4362C48.3847 41.9714 49.155 42.2603 49.9491 42.2429C51.5644 42.2429 53.1638 41.9231 54.6548 41.3017C56.0603 40.9224 57.3827 40.284 58.5539 39.4194C59.0167 39.0388 59.3463 38.5209 59.4951 37.9405C59.608 37.6352 59.6544 37.3094 59.6312 36.9848C59.608 36.6602 59.5158 36.3443 59.3606 36.0581C58.4579 34.6246 57.3218 33.3522 55.9994 32.2936C54.0457 30.6164 52.7972 28.2634 52.5036 25.7054ZM20.9076 33.638C20.2024 34.2682 19.6713 35.0692 19.3652 35.964C19.0591 36.8587 18.9883 37.8171 19.1597 38.7472L21.7143 38.3439C21.5715 37.8658 21.5718 37.3564 21.7152 36.8786C21.8585 36.4007 22.1386 35.9753 22.521 35.6548L20.9076 33.638ZM44.3021 41.4362L42.6887 43.453C45.576 45.6275 49.1759 46.6355 52.7725 46.2765L52.3692 43.7218C49.4853 44.0375 46.5917 43.2177 44.3021 41.4362ZM58.0162 41.5707C56.8292 42.7016 55.3306 43.451 53.7136 43.7218L53.9826 46.2765C56.2406 46.0156 58.3349 44.9684 59.8984 43.3185L58.0162 41.5707ZM43.4954 45.8731L40.9408 46.6798C41.4657 48.1015 42.5279 49.2603 43.8988 49.9066C45.1403 50.3895 46.4663 50.6181 47.7978 50.5789C49.4737 50.6509 51.1508 50.4696 52.7725 50.0411L52.2347 47.621C50.8252 47.9478 49.378 48.0834 47.9323 48.0243C46.9187 48.0661 45.9084 47.8824 44.9743 47.4865C44.6237 47.344 44.3091 47.1253 44.0534 46.8462C43.7975 46.5672 43.607 46.2348 43.4954 45.8731ZM57.7472 52.999L60.8396 54.7469L63.3941 56.4948L64.0665 56.8981C64.0665 57.5704 63.7975 59.7216 63.5286 61.6039L62.9909 64.2929H58.285C58.9835 63.921 59.5128 63.2954 59.764 62.5451C59.9908 61.8407 60.1704 61.1221 60.3018 60.3938C60.3696 59.095 60.3696 57.7936 60.3018 56.4948C60.1682 55.8617 59.9089 55.2618 59.5394 54.7307C59.1698 54.1996 58.6977 53.7479 58.1505 53.4023H57.7472V52.999ZM25.6134 53.5368C26.1997 54.8489 26.9693 56.0711 27.899 57.167C29.7648 59.3839 32.0492 61.2115 34.6216 62.5451C34.756 63.0828 34.756 63.4862 34.8905 64.024C34.9683 64.093 35.0164 64.1894 35.025 64.2929H14.8573L13.3783 60.7972C13.8298 60.4227 14.3267 60.1065 14.8573 59.856L19.4286 57.0325L25.6134 53.5368ZM55.7304 55.2847L56.9406 55.5536C57.1603 55.678 57.3478 55.8524 57.488 56.0626C57.6281 56.2727 57.7169 56.5129 57.7472 56.7637C57.8156 57.8382 57.8156 58.916 57.7472 59.9905C57.7509 60.4524 57.6594 60.91 57.4783 61.335C57.3438 61.7384 57.2094 61.8728 57.075 61.8728C55.9944 62.2408 54.8391 62.3333 53.7136 62.1417L51.6969 61.7384H46.8566L43.7643 62.9484C42.034 63.5913 40.2251 63.9982 38.3862 64.1585H37.714C37.714 64.024 37.5795 63.8895 37.4451 63.3518C37.1721 61.573 37.082 59.7709 37.1761 57.9737C37.0551 57.4795 37.1024 56.9591 37.3106 56.4948L38.2518 56.0914C39.5681 56.0644 40.8677 56.3893 42.0164 57.0325L47.1256 59.3183H49.1424L49.5457 58.9149L52.6381 56.7637L54.386 55.8225L55.1927 55.5536H55.3271C55.3271 55.2847 55.4615 55.2847 55.7304 55.2847ZM31.6637 57.167C32.6187 57.4874 33.615 57.6685 34.6216 57.7048V58.1082V59.4526C33.5683 58.7821 32.5783 58.0171 31.6637 57.167Z" fill="#2D2D2D" fill-opacity="0.7"/>
</g>
<path d="M109.406 24.6705C108.839 24.7413 108.345 24.8121 107.92 24.8828C107.495 24.9536 107.071 25.0245 106.505 25.166C105.868 25.3075 105.513 25.5905 105.372 26.0152C105.231 26.4397 105.09 26.8644 105.09 27.4306V44.698C105.09 46.2549 104.735 47.7411 104.098 49.0857C103.461 50.4304 102.612 51.4918 101.48 52.4118C100.348 53.261 99.0737 53.9687 97.6584 54.3934C96.243 54.8179 94.7568 55.1011 93.1999 55.1011C90.4399 55.1011 88.2462 54.4641 86.5476 53.1195C84.8492 51.7749 84 50.0057 84 47.6703C84 46.3257 84.3538 45.1935 85.1322 44.2735C85.9107 43.3534 86.9723 42.9289 88.3169 42.9289C89.5907 42.9289 90.5815 43.2826 91.36 44.0611C92.1384 44.8396 92.4922 45.7596 92.4922 46.8211C92.4922 47.7411 92.1384 48.6611 91.5015 49.4395C90.8646 50.218 90.0861 50.9964 89.2369 51.6334V51.9165C89.3784 52.1995 89.6614 52.4826 90.0861 52.695C90.5108 52.9072 91.0061 52.978 91.4307 52.978C93.1999 52.978 94.6153 52.3411 95.606 51.0673C96.5968 49.7934 97.0922 47.8826 97.0922 45.335V27.6428C97.0922 27.1474 97.0214 26.6521 96.8799 26.2982C96.7384 25.9444 96.3137 25.6613 95.6768 25.3782C95.2522 25.166 94.6861 25.0245 94.0491 24.8828C93.4122 24.7413 92.9169 24.6705 92.4922 24.5998V22.9014H109.194V24.6705H109.406Z" fill="#2D2D2D" fill-opacity="0.7"/>
<path d="M135.591 49.0157C135.095 49.8649 134.458 50.6433 133.751 51.4218C133.043 52.2002 132.193 52.7664 131.273 53.3325C130.282 53.8987 129.292 54.3233 128.301 54.6064C127.31 54.8894 126.107 55.031 124.833 55.031C122.64 55.031 120.8 54.7479 119.172 54.1109C117.615 53.4741 116.271 52.6957 115.279 51.6341C114.219 50.5726 113.511 49.3695 112.945 47.9541C112.449 46.5388 112.165 44.9818 112.165 43.3541C112.165 41.868 112.449 40.3818 113.015 39.0373C113.582 37.6927 114.36 36.4188 115.35 35.3573C116.341 34.2958 117.615 33.4465 119.172 32.8097C120.729 32.1728 122.427 31.8188 124.267 31.8188C126.319 31.8188 128.018 32.102 129.363 32.5973C130.707 33.0927 131.769 33.8004 132.618 34.6496C133.467 35.4988 134.033 36.4896 134.458 37.6219C134.811 38.7542 135.024 39.9573 135.024 41.2312V42.6464H120.092C120.092 45.6895 120.659 47.9541 121.861 49.511C122.993 51.0679 124.904 51.8463 127.381 51.8463C128.796 51.8463 130 51.4926 131.132 50.7141C132.264 49.9356 133.184 49.0157 133.962 47.8126L135.591 49.0157ZM127.169 40.5942C127.169 39.745 127.099 38.8249 127.027 37.905C126.956 36.985 126.815 36.2065 126.532 35.6404C126.249 34.9327 125.966 34.4374 125.47 34.0834C125.045 33.7297 124.479 33.5881 123.842 33.5881C122.711 33.5881 121.79 34.1542 121.153 35.2866C120.445 36.4188 120.092 38.2589 120.022 40.7357L127.169 40.5942Z" fill="#2D2D2D" fill-opacity="0.7"/>
<path d="M166.799 54.2529H153.494V52.6252C153.778 52.6252 154.131 52.5544 154.486 52.4837C154.911 52.4129 155.193 52.3422 155.405 52.2714C155.689 52.1298 155.901 51.8467 156.042 51.5637C156.185 51.2806 156.255 50.7853 156.255 50.2191V39.8868C156.255 38.4007 155.971 37.2684 155.405 36.49C154.84 35.7115 154.061 35.3576 152.929 35.3576C152.363 35.3576 151.797 35.4285 151.301 35.6408C150.805 35.7823 150.311 36.0653 149.815 36.4192C149.39 36.7022 149.037 36.9854 148.753 37.3392C148.471 37.6222 148.258 37.9054 148.116 38.1884V50.0068C148.116 50.5021 148.187 50.9268 148.328 51.2806C148.471 51.6345 148.753 51.9175 149.037 52.059C149.249 52.2005 149.531 52.3422 149.886 52.4129C150.239 52.4837 150.593 52.5544 150.948 52.6252V54.2529H137.501V52.6252C137.855 52.6252 138.209 52.5544 138.634 52.4837C138.987 52.4129 139.342 52.3422 139.624 52.2714C140.12 52.1298 140.402 51.8467 140.615 51.493C140.757 51.139 140.898 50.7145 140.898 50.1483V37.2684C140.898 36.8438 140.757 36.3485 140.544 35.9238C140.332 35.4992 139.979 35.1453 139.624 34.8623C139.342 34.7208 139.058 34.5084 138.634 34.4376C138.209 34.2961 137.784 34.2254 137.288 34.2254V32.5977L147.834 32.0315L148.187 32.3854V35.57H148.258C148.683 35.2161 149.178 34.7915 149.745 34.2254C150.311 33.7299 150.876 33.3054 151.372 32.9515C151.938 32.5977 152.645 32.3147 153.494 32.0315C154.344 31.7485 155.335 31.6777 156.326 31.6777C158.732 31.6777 160.501 32.3854 161.704 33.7299C162.907 35.0746 163.473 36.9146 163.473 39.1791V50.0068C163.473 50.5729 163.544 50.9975 163.685 51.2806C163.827 51.6345 164.181 51.8467 164.606 52.059C164.818 52.1298 165.1 52.2714 165.455 52.3422C165.808 52.4129 166.162 52.4837 166.658 52.5544V54.2529H166.799Z" fill="#2D2D2D" fill-opacity="0.7"/>
<path d="M197.23 54.252H186.827C185.553 51.9874 184.35 50.0766 183.288 48.5197C182.227 46.9628 181.236 45.4767 180.316 44.2029L179.043 45.3351V50.1474C179.043 50.6428 179.113 51.1382 179.255 51.4213C179.396 51.775 179.68 51.9874 180.175 52.1997C180.458 52.3412 180.74 52.412 181.095 52.4827C181.449 52.5535 181.802 52.6244 182.157 52.6244V54.252H168.427V52.6244C168.781 52.6244 169.135 52.5535 169.559 52.4827C169.914 52.412 170.267 52.3412 170.55 52.2705C171.046 52.1289 171.329 51.8459 171.541 51.492C171.682 51.1382 171.824 50.7136 171.824 50.1474V25.5199C171.824 25.0246 171.682 24.5292 171.47 24.0338C171.258 23.5385 170.974 23.1138 170.55 22.8308C170.267 22.6893 169.843 22.4769 169.277 22.4061C168.71 22.2646 168.215 22.1938 167.719 22.1938V20.5662L178.688 20L179.043 20.3538V43.1413C180.103 42.1506 181.377 41.0182 182.723 39.7445C184.067 38.4706 185.199 37.4091 185.978 36.5599C186.473 36.0645 186.756 35.7107 186.756 35.4275C186.827 35.1445 186.827 35.003 186.827 34.9321C186.827 34.6491 186.615 34.4368 186.12 34.2953C185.624 34.1537 184.987 33.9414 183.997 33.7999V32.243H195.178V33.7999C193.691 34.2245 192.56 34.5783 191.781 34.9321C191.002 35.286 190.153 35.7814 189.234 36.3475C188.597 36.7722 188.03 37.1967 187.464 37.6214C186.898 38.046 186.261 38.6121 185.483 39.249C186.898 41.3721 188.242 43.2828 189.446 45.0521C190.649 46.8213 191.923 48.7321 193.267 50.7136C193.691 51.4213 194.257 51.8459 194.965 52.1289C195.674 52.3412 196.311 52.4827 197.018 52.5535V54.252H197.23Z" fill="#2D2D2D" fill-opacity="0.7"/>
<path d="M211.384 54.2524H197.442V52.6248C197.796 52.6248 198.22 52.554 198.574 52.4833C198.928 52.4125 199.282 52.3417 199.494 52.271C199.99 52.1294 200.273 51.8463 200.485 51.4925C200.697 51.1386 200.768 50.7141 200.768 50.1479V37.268C200.768 36.7726 200.626 36.2773 200.415 35.9234C200.201 35.4988 199.919 35.2157 199.565 35.0034C199.282 34.8619 198.928 34.6496 198.362 34.508C197.796 34.3665 197.301 34.225 196.875 34.225V32.5973L207.703 32.0311L208.058 32.385V49.9356C208.058 50.4309 208.199 50.8556 208.411 51.2801C208.623 51.6341 208.977 51.9171 209.331 52.0586C209.614 52.2002 209.967 52.3417 210.322 52.4125C210.676 52.4833 211.029 52.554 211.454 52.6248V54.2524H211.384ZM208.199 24.1758C208.199 25.3081 207.774 26.2282 206.925 27.0066C206.075 27.7851 205.014 28.2096 203.882 28.2096C202.679 28.2096 201.688 27.7851 200.768 27.0066C199.919 26.2282 199.494 25.2373 199.494 24.1758C199.494 23.0435 199.919 22.1235 200.768 21.2743C201.618 20.4958 202.679 20.0713 203.882 20.0713C205.085 20.0713 206.075 20.4958 206.925 21.2743C207.774 22.0527 208.199 23.0435 208.199 24.1758Z" fill="#2D2D2D" fill-opacity="0.7"/>
<path d="M242.593 54.2529H229.288V52.6252C229.571 52.6252 229.924 52.5544 230.279 52.4837C230.703 52.4129 230.986 52.3422 231.198 52.2714C231.482 52.1298 231.694 51.8467 231.835 51.5637C231.977 51.2806 232.047 50.7853 232.047 50.2191V39.8868C232.047 38.4007 231.765 37.2684 231.198 36.49C230.632 35.7115 229.854 35.3576 228.721 35.3576C228.155 35.3576 227.59 35.4285 227.094 35.6408C226.598 35.853 226.103 36.0653 225.607 36.4192C225.183 36.7022 224.829 36.9854 224.546 37.3392C224.263 37.6222 224.051 37.9054 223.909 38.1884V50.0068C223.909 50.5021 223.98 50.9268 224.121 51.2806C224.263 51.6345 224.546 51.9175 224.829 52.059C225.042 52.2005 225.325 52.3422 225.679 52.4129C226.032 52.4837 226.387 52.5544 226.74 52.6252V54.2529H213.293V52.6252C213.648 52.6252 214.002 52.5544 214.426 52.4837C214.78 52.4129 215.134 52.3422 215.417 52.2714C215.913 52.1298 216.196 51.8467 216.408 51.493C216.55 51.139 216.691 50.7145 216.691 50.1483V37.2684C216.691 36.8438 216.55 36.3485 216.337 35.9238C216.125 35.4992 215.771 35.1453 215.417 34.8623C215.134 34.7208 214.851 34.5084 214.426 34.4376C214.002 34.2961 213.577 34.2254 213.082 34.2254V32.5977L223.626 32.0315L223.98 32.3854V35.57H224.051C224.476 35.2161 224.971 34.7915 225.537 34.2254C226.103 33.7299 226.669 33.3054 227.165 32.9515C227.731 32.5977 228.439 32.3147 229.288 32.0315C230.136 31.7485 231.128 31.6777 232.119 31.6777C234.524 31.6777 236.294 32.3854 237.497 33.7299C238.7 35.0746 239.267 36.9146 239.267 39.1791V50.0068C239.267 50.5729 239.337 50.9975 239.479 51.2806C239.62 51.6345 239.974 51.8467 240.398 52.059C240.611 52.1298 240.894 52.2714 241.248 52.3422C241.601 52.4129 241.956 52.4837 242.45 52.5544V54.2529H242.593Z" fill="#2D2D2D" fill-opacity="0.7"/>
<path d="M254.836 55.031C253.42 55.031 252.004 54.8186 250.66 54.3941C249.315 53.9694 248.254 53.5449 247.475 53.0495L246.838 54.5356H245.14L244.856 46.3264H246.485C246.697 46.9634 247.051 47.7418 247.617 48.591C248.112 49.4402 248.749 50.1479 249.386 50.8556C250.094 51.4926 250.873 52.0587 251.792 52.554C252.713 52.9787 253.632 53.2617 254.622 53.2617C255.968 53.2617 256.958 52.9787 257.595 52.4833C258.232 51.988 258.586 51.1388 258.586 50.0772C258.586 49.511 258.444 49.0157 258.161 48.591C257.879 48.2372 257.454 47.8833 256.958 47.6003C256.392 47.3173 255.755 47.0341 255.047 46.8218C254.34 46.6096 253.491 46.3972 252.5 46.0434C251.51 45.7602 250.66 45.4772 249.952 45.1234C249.244 44.8403 248.466 44.345 247.759 43.708C247.122 43.1418 246.555 42.4342 246.202 41.6557C245.777 40.8772 245.636 39.8865 245.636 38.7542C245.636 36.702 246.485 35.0034 248.254 33.7297C250.023 32.4558 252.288 31.8188 255.118 31.8188C256.463 31.8188 257.666 31.9604 258.798 32.2435C259.931 32.5265 260.85 32.8097 261.629 33.1635L262.124 31.8896H263.823L264.176 39.3911H262.62C262.124 37.8342 261.205 36.5603 260.002 35.4281C258.728 34.2958 257.383 33.7297 255.968 33.7297C254.836 33.7297 253.915 33.9419 253.278 34.4374C252.641 34.9327 252.288 35.5696 252.288 36.4188C252.288 37.5512 252.783 38.3296 253.703 38.8249C254.622 39.3203 255.968 39.8158 257.666 40.2403C260.284 40.948 262.195 41.868 263.469 43.0003C264.672 44.2033 265.309 45.6895 265.309 47.4588C265.309 49.8649 264.39 51.7756 262.479 53.0495C260.355 54.3233 257.879 55.031 254.836 55.031Z" fill="#2D2D2D" fill-opacity="0.7"/>
</svg>
