<svg width="274" height="75" viewBox="0 0 274 75" fill="none" xmlns="http://www.w3.org/2000/svg">
<path fill-rule="evenodd" clip-rule="evenodd" d="M108.111 19V48.9039H118.984V54.063H102.322V19H108.111ZM139.421 33.8767V30.721H144.908V54.0643H139.422V50.9073C138.683 52.0764 137.635 52.9952 136.275 53.6621C134.917 54.3303 133.549 54.6638 132.173 54.6638C130.393 54.6638 128.766 54.3395 127.289 53.688C125.851 53.0639 124.557 52.1517 123.488 51.0073C122.43 49.8692 121.593 48.5444 121.024 47.1016C120.429 45.6015 120.131 44.0029 120.141 42.3913C120.141 40.7564 120.435 39.1941 121.023 37.7071C121.588 36.2538 122.426 34.9199 123.488 33.7755C124.558 32.6324 125.851 31.7202 127.289 31.096C128.766 30.4446 130.393 30.1202 132.173 30.1202C133.549 30.1202 134.917 30.4537 136.275 31.122C137.634 31.7902 138.682 32.7075 139.421 33.8767ZM138.917 45.2473C139.255 44.3338 139.426 43.3672 139.422 42.3927C139.422 41.3897 139.253 40.4385 138.917 39.538C138.603 38.6712 138.125 37.8719 137.509 37.1829C136.895 36.5082 136.149 35.9619 135.319 35.5791C134.463 35.1795 133.514 34.9783 132.476 34.9783C131.434 34.9783 130.494 35.1795 129.655 35.5791C128.834 35.9671 128.099 36.512 127.491 37.1829C126.877 37.8681 126.407 38.6686 126.108 39.5367C125.786 40.454 125.623 41.4195 125.629 42.3913C125.629 43.3931 125.787 44.3455 126.107 45.246C126.425 46.1491 126.887 46.9329 127.492 47.6011C128.099 48.2733 128.834 48.8182 129.656 49.2049C130.494 49.6058 131.434 49.8057 132.474 49.8057C133.514 49.8057 134.463 49.6058 135.319 49.2049C136.149 48.8221 136.895 48.2772 137.509 47.6011C138.125 46.9134 138.603 46.1141 138.917 45.2473ZM149.238 54.0657V30.721H164.138V36.0942H154.723V54.0657H149.238ZM184.021 33.8767V30.721H189.508V54.0643H184.021V50.9073C183.283 52.0764 182.235 52.9952 180.875 53.6621C179.516 54.3303 178.149 54.6638 176.772 54.6638C174.994 54.6638 173.366 54.3395 171.891 53.688C170.452 53.0639 169.157 52.1517 168.089 51.0073C167.031 49.8692 166.193 48.5444 165.623 47.1016C165.03 45.6015 164.73 44.0029 164.742 42.3913C164.742 40.7564 165.036 39.1941 165.623 37.7071C166.189 36.2538 167.025 34.9199 168.088 33.7755C169.157 32.6324 170.452 31.7202 171.891 31.096C173.366 30.4446 174.994 30.1202 176.772 30.1202C178.148 30.1202 179.516 30.4537 180.875 31.122C182.235 31.7902 183.283 32.7075 184.021 33.8767ZM183.518 45.2473C183.856 44.3338 184.026 43.3672 184.021 42.3927C184.021 41.3897 183.852 40.4385 183.518 39.538C183.203 38.6712 182.725 37.8719 182.11 37.1829C181.496 36.5082 180.75 35.9619 179.919 35.5791C179.064 35.1795 178.114 34.9783 177.075 34.9783C176.034 34.9783 175.094 35.1795 174.256 35.5791C173.436 35.9671 172.7 36.512 172.091 37.1829C171.477 37.8681 171.006 38.6686 170.708 39.5367C170.386 40.454 170.223 41.4195 170.229 42.3913C170.229 43.3931 170.387 44.3455 170.708 45.246C171.026 46.1491 171.487 46.9329 172.091 47.6011C172.699 48.2733 173.436 48.8182 174.256 49.2049C175.094 49.6058 176.034 49.8057 177.075 49.8057C178.114 49.8057 179.064 49.6058 179.919 49.2049C180.75 48.8221 181.496 48.2772 182.11 47.6011C182.725 46.9134 183.203 46.1141 183.518 45.2473ZM211.506 30.721H217.063L208.059 54.0643H201.161L192.156 30.721H197.713L204.611 48.5963L211.506 30.721ZM229.031 30.1202C236.502 30.1202 241.597 36.7093 240.639 44.4207H222.437C222.437 46.4346 224.48 50.3273 229.333 50.3273C233.506 50.3273 236.303 46.6747 236.304 46.672L240.011 49.5267C236.697 53.047 233.983 54.6651 229.733 54.6651C222.14 54.6651 216.993 49.8848 216.993 42.3927C216.993 35.6155 222.313 30.1202 229.031 30.1202ZM222.452 40.3633H235.601C235.561 39.9143 234.847 34.4567 228.987 34.4567C223.126 34.4567 222.493 39.9143 222.452 40.3633ZM244.212 54.063V19H249.699V54.063H244.212Z" fill="#2D2D2D" fill-opacity="0.7"/>
<path fill-rule="evenodd" clip-rule="evenodd" d="M89.5036 19.6006C89.5275 19.6867 89.5398 19.7754 89.54 19.8645V33.7179C89.54 33.8957 89.4917 34.0703 89.4 34.2242C89.3082 34.378 89.1763 34.5056 89.0175 34.5941L77.0477 41.2885V54.5572C77.0477 54.9183 76.8501 55.2516 76.5278 55.4335L51.5418 69.4055C51.4846 69.437 51.4222 69.4572 51.3598 69.4787C51.3364 69.4863 51.3143 69.5002 51.2896 69.5065C51.115 69.5512 50.9314 69.5512 50.7567 69.5065C50.7281 69.4989 50.7021 69.4838 50.6748 69.4737C50.6177 69.4535 50.5579 69.4358 50.5033 69.4055L25.5225 55.4335C25.3638 55.3449 25.232 55.2173 25.1402 55.0634C25.0485 54.9096 25.0001 54.735 25 54.5572V12.9972C25 12.9063 25.013 12.8179 25.0364 12.732C25.0442 12.703 25.0624 12.6765 25.0728 12.6475C25.0923 12.5944 25.1105 12.5401 25.1391 12.4909C25.1586 12.4581 25.1872 12.4315 25.2106 12.4012C25.2405 12.3608 25.2678 12.3192 25.3029 12.2838C25.3327 12.2548 25.3717 12.2333 25.4055 12.2081C25.4432 12.1778 25.477 12.1449 25.5199 12.1209L38.0122 5.13494C38.1704 5.04653 38.3497 5 38.5322 5C38.7146 5 38.8939 5.04653 39.0521 5.13494L51.5431 12.1209H51.5457C51.5873 12.1462 51.6224 12.1778 51.6601 12.2068C51.6939 12.2321 51.7316 12.2548 51.7615 12.2826C51.7979 12.3192 51.8239 12.3608 51.8551 12.4012C51.8772 12.4315 51.907 12.4581 51.9252 12.4909C51.9551 12.5414 51.972 12.5944 51.9928 12.6475C52.0032 12.6765 52.0214 12.703 52.0292 12.7333C52.0532 12.8194 52.0654 12.9081 52.0656 12.9972V38.9552L62.4744 33.1333V19.8633C62.4744 19.7749 62.4874 19.6852 62.5108 19.6006C62.5199 19.5703 62.5368 19.5438 62.5472 19.5148C62.568 19.4618 62.5862 19.4075 62.6148 19.3582C62.6343 19.3254 62.6629 19.2989 62.6849 19.2686C62.7161 19.2282 62.7421 19.1865 62.7785 19.1512C62.8084 19.1221 62.8461 19.1006 62.8799 19.0754C62.9189 19.0451 62.9527 19.0123 62.9943 18.9883L75.4879 12.0023C75.646 11.9137 75.8253 11.8671 76.0078 11.8671C76.1903 11.8671 76.3696 11.9137 76.5278 12.0023L89.0188 18.9883C89.063 19.0135 89.0968 19.0451 89.1358 19.0741C89.1683 19.0994 89.206 19.1221 89.2359 19.1499C89.2722 19.1865 89.2982 19.2282 89.3294 19.2686C89.3528 19.2989 89.3814 19.3254 89.3996 19.3582C89.4295 19.4075 89.4464 19.4618 89.4672 19.5148C89.4789 19.5438 89.4958 19.5703 89.5036 19.6006ZM87.4577 33.1333V21.6132L83.0865 24.0576L77.0477 27.4351V38.9552L87.459 33.1333H87.4577ZM74.9667 53.9726V42.445L69.0266 45.7404L52.0643 55.1443V66.7805L74.9667 53.9726ZM27.0823 14.7459V53.9726L49.9821 66.7793V55.1456L38.0187 48.5687L38.0148 48.5661L38.0096 48.5636C37.9694 48.5409 37.9356 48.5081 37.8979 48.4803C37.8654 48.455 37.8277 48.4348 37.7991 48.407L37.7965 48.4033C37.7627 48.3717 37.7393 48.3325 37.7107 48.2972C37.6847 48.2631 37.6535 48.2341 37.6327 48.1987L37.6314 48.1949C37.608 48.157 37.5937 48.1116 37.5768 48.0687C37.5599 48.0308 37.5378 47.9954 37.5274 47.955C37.5144 47.907 37.5118 47.8553 37.5066 47.806C37.5014 47.7682 37.491 47.7303 37.491 47.6924V47.6899V20.5678L31.4535 17.1891L27.0823 14.7459ZM38.5335 7.17784L28.126 12.9972L38.5309 18.8166L48.937 12.9959L38.5309 7.17784H38.5335ZM43.9458 43.4955L49.9834 40.1193V14.7459L45.6121 17.1903L39.5733 20.5678V45.9412L43.9458 43.4955ZM76.0078 14.0452L65.6017 19.8645L76.0078 25.6839L86.4127 19.8633L76.0078 14.0452ZM74.9667 27.4351L68.9279 24.0576L64.5567 21.6132V33.1333L70.5942 36.5095L74.9667 38.9552V27.4351ZM51.0219 53.3956L66.2854 44.9311L73.9152 40.7013L63.5168 34.8858L51.5444 41.5814L40.6326 47.6836L51.0219 53.3956Z" fill="#2D2D2D" fill-opacity="0.7"/>
</svg>
