<svg width="274" height="75" viewBox="0 0 274 75" fill="none" xmlns="http://www.w3.org/2000/svg">
<path d="M64.3682 39.8936C64.3682 39.247 64.0287 38.648 63.4717 38.328L48.584 29.7449C48.3327 29.5951 48.0475 29.5202 47.7622 29.5066C47.735 29.5066 47.6264 29.5066 47.606 29.5066C47.3207 29.5202 47.0423 29.5951 46.7842 29.7449L31.9033 38.328C31.3464 38.648 31 39.247 31 39.8936L31.034 63.009C31.034 63.3289 31.2038 63.6284 31.4822 63.785C31.7607 63.9483 32.1003 63.9483 32.3787 63.785L41.2217 58.7072C41.7787 58.3737 42.1182 57.7883 42.1182 57.1417V46.3395C42.1182 45.6997 42.4578 45.1007 43.0147 44.7808L46.7842 42.6094C47.0627 42.4461 47.3683 42.3712 47.6875 42.3712C47.9932 42.3712 48.3055 42.4529 48.584 42.6094L52.3467 44.7808C52.9036 45.1007 53.2432 45.6997 53.2432 46.3395V57.1417C53.2432 57.7883 53.5896 58.3737 54.1466 58.7072L62.9895 63.785C63.268 63.9483 63.6144 63.9483 63.8861 63.785C64.1577 63.6284 64.3342 63.3289 64.3342 63.009L64.3682 39.8936ZM143.847 8.11327C143.567 7.95671 143.228 7.96355 142.957 8.12696C142.685 8.29027 142.515 8.58295 142.515 8.90283V31.7937C142.515 32.0183 142.392 32.2293 142.203 32.3382C142.012 32.4471 141.768 32.4539 141.571 32.3382L137.842 30.1873C137.285 29.8674 136.599 29.8674 136.043 30.1873L121.155 38.7977C120.598 39.1176 120.251 39.7167 120.251 40.3564V57.5841C120.251 58.2308 120.591 58.8229 121.148 59.1429L136.035 67.7601C136.593 68.08 137.278 68.08 137.836 67.7601L152.73 59.1429C153.287 58.8162 153.627 58.2239 153.627 57.5841V14.6409C153.627 13.9875 153.274 13.3885 152.703 13.0685L143.839 8.11327H143.847ZM142.467 51.9278C142.467 52.0911 142.386 52.2409 142.243 52.3157L137.129 55.2699C136.993 55.3515 136.817 55.3515 136.681 55.2699L131.566 52.3157C131.424 52.2341 131.342 52.0843 131.342 51.9278V46.0128C131.342 45.8494 131.431 45.6997 131.566 45.6248L136.681 42.6639C136.817 42.5822 136.993 42.5822 137.129 42.6639L142.243 45.6248C142.379 45.7065 142.467 45.8563 142.467 46.0128V51.9278ZM197.121 45.8563C197.671 45.5363 198.018 44.9442 198.018 44.2975V40.125C198.018 39.4784 197.678 38.893 197.121 38.5663L182.329 29.9559C181.772 29.6292 181.086 29.6292 180.529 29.9559L165.641 38.5663C165.084 38.8862 164.745 39.4852 164.745 40.125V57.3459C164.745 57.9925 165.091 58.5915 165.655 58.9114L180.447 67.3585C180.99 67.6716 181.663 67.6716 182.213 67.3653L191.158 62.3828C191.436 62.2262 191.613 61.9268 191.619 61.6001C191.627 61.2733 191.45 60.9738 191.172 60.8105L176.189 52.1933C175.91 52.0367 175.741 51.7372 175.741 51.4105V46.0128C175.741 45.6928 175.91 45.3934 176.189 45.23L180.855 42.5413C181.133 42.3848 181.473 42.3848 181.752 42.5413L186.417 45.23C186.696 45.3934 186.866 45.6861 186.866 46.0128V50.2602C186.866 50.58 187.036 50.8796 187.314 51.0429C187.592 51.2063 187.939 51.1994 188.217 51.0429L197.128 45.8494L197.121 45.8563ZM91.4473 29.8674C92.0042 29.5475 92.6901 29.5475 93.247 29.8674L108.135 38.4779C108.692 38.7977 109.031 39.3899 109.031 40.0365V57.271C109.031 57.9177 108.685 58.5098 108.135 58.8297L93.247 67.447C92.6901 67.7668 92.0042 67.7668 91.4473 67.447L76.5595 58.8297C76.0026 58.5098 75.6631 57.9108 75.6631 57.271V40.0365C75.6631 39.3899 76.0026 38.7977 76.5595 38.4779L91.4473 29.8674ZM226.027 67.692C225.518 67.692 225.001 67.5559 224.553 67.2972L219.867 64.5201C219.167 64.1253 219.514 63.9892 219.738 63.9075C220.668 63.5808 220.859 63.5059 221.857 62.941C221.959 62.8797 222.102 62.9069 222.21 62.9682L225.81 65.1123C225.939 65.1871 226.122 65.1871 226.245 65.1123L240.283 56.992C240.412 56.9171 240.494 56.7673 240.494 56.6108V40.3701C240.494 40.2135 240.412 40.0637 240.277 39.9821L226.245 31.8686C226.116 31.7937 225.939 31.7937 225.81 31.8686L211.778 39.9821C211.642 40.057 211.554 40.2135 211.554 40.3701V56.6108C211.554 56.7673 211.642 56.9102 211.772 56.9851L215.616 59.2109C217.7 60.2592 218.978 59.0271 218.978 57.7883V41.7586C218.978 41.534 219.161 41.357 219.385 41.357H221.164C221.388 41.357 221.572 41.534 221.572 41.7586V57.7883C221.572 60.579 220.057 62.1786 217.415 62.1786C216.607 62.1786 215.962 62.1786 214.182 61.3005L210.501 59.1769C209.591 58.6527 209.028 57.6658 209.028 56.6108V40.3701C209.028 39.315 209.591 38.328 210.501 37.804L224.54 29.6768C225.429 29.1731 226.612 29.1731 227.488 29.6768L241.526 37.804C242.436 38.328 243 39.315 243 40.3701V56.6108C243 57.6658 242.436 58.6459 241.526 59.1769L227.488 67.2972C227.039 67.5559 226.529 67.692 226.007 67.692H226.027ZM230.367 56.5087C224.221 56.5087 222.937 53.6839 222.937 51.3084C222.937 51.0838 223.113 50.9067 223.345 50.9067H225.157C225.362 50.9067 225.531 51.0566 225.559 51.2539C225.83 53.1053 226.645 54.0447 230.367 54.0447C233.322 54.0447 234.585 53.3708 234.585 51.8053C234.585 50.9 234.231 50.2261 229.634 49.7769C225.796 49.3957 223.419 48.5449 223.419 45.4682C223.419 42.6298 225.81 40.935 229.81 40.935C234.306 40.935 236.534 42.5006 236.813 45.8563C236.826 45.9719 236.786 46.0809 236.704 46.1694C236.622 46.2578 236.52 46.2987 236.406 46.2987H234.585C234.395 46.2987 234.231 46.1625 234.191 45.9788C233.756 44.0321 232.69 43.4058 229.81 43.4058C226.584 43.4058 226.203 44.5357 226.203 45.3797C226.203 46.4076 226.645 46.7003 231.006 47.2788C235.318 47.8506 237.369 48.6606 237.369 51.6963C237.369 54.7593 234.823 56.5154 230.374 56.5154L230.367 56.5087ZM181.202 45.053C181.31 44.9918 181.439 44.9918 181.548 45.053L184.407 46.707C184.516 46.7683 184.583 46.884 184.583 47.0066V50.3146C184.583 50.4372 184.516 50.5528 184.407 50.6141L181.548 52.2681C181.439 52.3294 181.31 52.3294 181.202 52.2681L178.348 50.6141C178.24 50.5528 178.178 50.4372 178.178 50.3146V47.0066C178.178 46.884 178.247 46.7683 178.348 46.707L181.202 45.053Z" fill="#2D2D2D" fill-opacity="0.7"/>
</svg>
