<svg width="274" height="75" viewBox="0 0 274 75" fill="none" xmlns="http://www.w3.org/2000/svg">
<path d="M104.666 48.4074H110.761V38.2107H115.208L120.67 48.4074H127.398L121.275 37.2276C124.554 35.8231 126.37 32.9719 126.37 29.0393C126.37 23.323 122.584 19.6432 116.039 19.6432H104.666V48.4074ZM110.761 33.323V24.6151H114.871C118.39 24.6151 120.092 26.1741 120.092 29.0393C120.092 31.8905 118.39 33.323 114.899 33.323H110.761ZM136.73 48.8147C139.925 48.8147 141.993 47.4243 143.05 45.4158H143.218V48.4074H148.905V33.8567C148.905 28.7163 144.541 26.5533 139.727 26.5533C134.548 26.5533 131.142 29.0252 130.311 32.9578L135.857 33.4073C136.265 31.9747 137.546 30.9213 139.7 30.9213C141.74 30.9213 142.909 31.9467 142.909 33.7163V33.8006C142.909 35.1911 141.43 35.3736 137.672 35.7388C133.394 36.1321 129.551 37.5646 129.551 42.3821C129.551 46.6518 132.606 48.8147 136.73 48.8147ZM138.447 44.6855C136.603 44.6855 135.279 43.8287 135.279 42.1855C135.279 40.5 136.673 39.6714 138.784 39.3764C140.094 39.1939 142.233 38.8849 142.95 38.4074V40.6967C142.95 42.958 141.079 44.6855 138.447 44.6855ZM153.557 48.4074H159.553V26.8343H153.557V48.4074ZM156.568 24.0533C158.356 24.0533 159.82 22.691 159.82 21.0196C159.82 19.3623 158.356 18 156.568 18C154.795 18 153.331 19.3623 153.331 21.0196C153.331 22.691 154.795 24.0533 156.568 24.0533ZM170.352 19.6432H164.356V48.4074H170.352V19.6432ZM179.42 48.4074H185.753L189.469 34.8399H189.737L193.452 48.4074H199.8L205.669 26.8343H199.618L196.324 41.2445H196.141L192.594 26.8343H186.64L183.149 41.3287H182.952L179.602 26.8343H173.536L179.42 48.4074ZM215.033 48.8147C218.228 48.8147 220.297 47.4243 221.353 45.4158H221.522V48.4074H227.209V33.8567C227.209 28.7163 222.845 26.5533 218.031 26.5533C212.852 26.5533 209.445 29.0252 208.615 32.9578L214.16 33.4073C214.568 31.9747 215.849 30.9213 218.003 30.9213C220.044 30.9213 221.213 31.9467 221.213 33.7163V33.8006C221.213 35.1911 219.734 35.3736 215.976 35.7388C211.697 36.1321 207.855 37.5646 207.855 42.3821C207.855 46.6518 210.909 48.8147 215.033 48.8147ZM216.751 44.6855C214.907 44.6855 213.583 43.8287 213.583 42.1855C213.583 40.5 214.977 39.6714 217.088 39.3764C218.397 39.1939 220.537 38.8849 221.254 38.4074V40.6967C221.254 42.958 219.383 44.6855 216.751 44.6855ZM234.788 56.4974C239.25 56.4974 241.614 54.222 242.839 50.7388L251.242 26.8623L244.893 26.8343L240.376 42.677H240.15L235.674 26.8343H229.369L237.124 49.0254L236.772 49.9383C235.984 51.9608 234.478 52.0591 232.367 51.413L231.016 55.8794C231.874 56.2445 233.268 56.4974 234.788 56.4974Z" fill="#2D2D2D" fill-opacity="0.7"/>
<g clip-path="url(#clip0_215_220)">
<path d="M22.2998 32.6171C22.146 33.6947 22.046 34.7792 22 35.8668H71.0226C70.8514 35.5323 70.6214 35.2308 70.3895 34.9357C62.0088 24.1082 57.5005 25.047 51.0515 24.7719C48.9014 24.6835 47.4433 24.6479 38.8849 24.6479C34.3043 24.6479 29.3244 24.6596 24.4751 24.6725C23.8473 26.367 23.2419 28.0093 22.9471 29.3454H48.068V32.6171H22.2998ZM71.409 39.1417H22.0251C22.0768 40.0147 22.1583 40.876 22.2759 41.7258H67.8692C69.9017 41.7258 71.0395 40.5726 71.409 39.1417ZM24.8373 50.6511C24.8373 50.6511 32.3958 69.2104 54.236 69.5401C67.2897 69.5401 78.506 61.7873 83.6008 50.6511H24.8373Z" fill="#2D2D2D" fill-opacity="0.7"/>
<path d="M54.2357 5C42.1659 5 31.6629 11.628 26.1164 21.4257C30.4508 21.4166 38.8923 21.4114 38.8923 21.4114H38.8942V21.4082C48.872 21.4082 49.2429 21.4528 51.192 21.5342L52.3989 21.5786C56.6028 21.7188 61.77 22.1701 65.8357 25.2462C68.0426 26.9146 71.229 30.597 73.1285 33.2204C74.8845 35.6469 75.3897 38.4363 74.1957 41.1088C73.0968 43.565 70.7323 45.0301 67.8689 45.0301H23.052C23.052 45.0301 23.3188 46.161 23.7188 47.4094H84.8952C85.9816 44.1439 86.537 40.7252 86.5401 37.2837C86.5407 19.4556 72.0773 5 54.2357 5Z" fill="#2D2D2D" fill-opacity="0.7"/>
</g>
<defs>
<clipPath id="clip0_215_220">
<rect width="64.54" height="64.54" fill="white" transform="translate(22 5)"/>
</clipPath>
</defs>
</svg>
