<svg width="274" height="75" viewBox="0 0 274 75" fill="none" xmlns="http://www.w3.org/2000/svg">
<mask id="mask0_215_223" style="mask-type:luminance" maskUnits="userSpaceOnUse" x="20" y="15" width="234" height="45">
<path d="M253.924 15H20V59.6494H253.924V15Z" fill="white"/>
</mask>
<g mask="url(#mask0_215_223)">
<path d="M101.193 22.3545C108.693 22.3545 113.568 26.6069 113.568 33.4367C113.568 38.4372 110.701 42.1528 106.206 43.7384L115.018 58.8454H108.482L100.262 44.5108H91.1825V58.8454H85.5537V22.3545H101.193ZM91.1745 27.4362V39.486H100.926C105.396 39.486 107.705 36.9818 107.705 33.4367C107.705 29.8104 105.405 27.4362 100.926 27.4362H91.1745Z" fill="#2D2D2D" fill-opacity="0.7"/>
<path d="M129.337 32.4937C136.837 32.4937 141.712 38.0875 141.712 44.9988C141.712 45.8035 141.656 46.6411 141.502 47.4705H121.546C121.789 51.3408 125.085 54.3816 129.532 54.3816C132.747 54.3816 135.314 53.0074 137.242 49.9747L141.153 52.8286C138.772 57.1298 134.083 59.3902 129.532 59.3902C121.765 59.3902 116.055 53.6336 116.055 45.9746C116.055 38.2746 121.546 32.4937 129.337 32.4937ZM136.326 43.4865C136.003 39.8601 132.981 37.2989 129.28 37.2989C125.344 37.2989 122.339 39.8521 121.675 43.4865H136.326Z" fill="#2D2D2D" fill-opacity="0.7"/>
<path d="M146.637 58.8454V33.0303H151.966V36.2826C152.824 34.9654 155.263 32.4937 159.871 32.4937C166.941 32.4937 170.667 36.9005 170.667 43.1692V58.8454H165.362V44.2995C165.362 40.0228 163.03 37.5509 159.036 37.5509C155.125 37.5509 151.942 40.0228 151.942 44.2995V58.8454H146.637Z" fill="#2D2D2D" fill-opacity="0.7"/>
<path d="M187.951 32.4936C192.316 32.4936 195.207 34.1035 197.111 36.551V20.9805H202.415V58.8455H197.111V55.3247C195.207 57.7721 192.316 59.382 187.951 59.382C180.637 59.382 175.04 53.7312 175.04 45.8036C175.04 37.8681 180.637 32.4936 187.951 32.4936ZM180.337 45.8036C180.337 50.5602 183.633 54.5929 188.59 54.5929C193.547 54.5929 197.078 50.5602 197.078 45.8036C197.078 41.0472 193.514 37.2825 188.59 37.2825C183.633 37.2745 180.337 41.039 180.337 45.8036Z" fill="#2D2D2D" fill-opacity="0.7"/>
<path d="M220.192 32.4937C227.693 32.4937 232.568 38.0875 232.568 44.9988C232.568 45.8035 232.511 46.6411 232.357 47.4705H212.401C212.644 51.3408 215.94 54.3816 220.387 54.3816C223.602 54.3816 226.17 53.0074 228.097 49.9747L232.009 52.8286C229.628 57.1298 224.939 59.3902 220.387 59.3902C212.619 59.3902 206.91 53.6336 206.91 45.9746C206.901 38.2746 212.393 32.4937 220.192 32.4937ZM227.182 43.4865C226.858 39.8601 223.837 37.2989 220.136 37.2989C216.2 37.2989 213.195 39.8521 212.531 43.4865H227.182Z" fill="#2D2D2D" fill-opacity="0.7"/>
<path d="M237.694 58.8454V33.0303H243.023V36.5509C244.474 33.7296 246.91 32.4937 249.722 32.4937C251.73 32.4937 253.261 33.1359 253.261 33.1359L252.701 38.0308C252.41 37.9251 251.253 37.4371 249.569 37.4371C246.726 37.4371 243.032 38.9414 243.032 44.7792V58.8454H237.694Z" fill="#2D2D2D" fill-opacity="0.7"/>
</g>
<path d="M55.2792 15.0124C49.5773 14.7441 44.7828 18.8664 43.9646 24.2977C43.9323 24.5497 43.8836 24.7937 43.8432 25.0376C42.5716 31.8024 36.6512 36.9248 29.5402 36.9248C27.0052 36.9248 24.6241 36.2744 22.5507 35.136C22.2997 34.9978 22 35.1767 22 35.4612V36.9167V58.8453H43.8351V42.4049C43.8351 39.3803 46.2809 36.9248 49.2938 36.9248H54.7526C60.9322 36.9248 65.905 31.778 65.662 25.5174C65.4433 19.8827 60.8918 15.2807 55.2792 15.0124Z" fill="#2D2D2D" fill-opacity="0.7"/>
</svg>
