<svg width="274" height="75" viewBox="0 0 274 75" fill="none" xmlns="http://www.w3.org/2000/svg">
<path d="M137.261 22.25C129.022 22.25 123.081 27.65 123.081 35.75C123.081 43.8499 129.768 49.25 138.008 49.25C142.985 49.25 147.374 47.2699 150.09 43.9325L144.381 40.6175C142.873 42.275 140.583 43.2425 138.008 43.2425C134.433 43.2425 131.395 41.3675 130.268 38.3674H151.18C151.345 37.5274 151.441 36.6574 151.441 35.7425C151.441 27.65 145.5 22.25 137.261 22.25ZM130.201 33.125C131.134 30.1324 133.686 28.25 137.254 28.25C140.829 28.25 143.381 30.1324 144.307 33.125H130.201ZM217.625 22.25C209.386 22.25 203.445 27.65 203.445 35.75C203.445 43.8499 210.133 49.25 218.371 49.25C223.35 49.25 227.737 47.2699 230.454 43.9325L224.745 40.6175C223.238 42.275 220.946 43.2425 218.371 43.2425C214.797 43.2425 211.759 41.3675 210.632 38.3674H231.544C231.708 37.5274 231.805 36.6574 231.805 35.7425C231.805 27.65 225.865 22.25 217.625 22.25ZM210.573 33.125C211.505 30.1324 214.057 28.25 217.625 28.25C221.2 28.25 223.753 30.1324 224.678 33.125H210.573ZM181.444 35.75C181.444 40.25 184.37 43.25 188.907 43.25C191.981 43.25 194.288 41.8474 195.474 39.56L201.206 42.8825C198.833 46.8575 194.385 49.25 188.907 49.25C180.66 49.25 174.727 43.8499 174.727 35.75C174.727 27.65 180.668 22.25 188.907 22.25C194.385 22.25 198.825 24.6425 201.206 28.6175L195.474 31.94C194.288 29.6525 191.981 28.25 188.907 28.25C184.377 28.25 181.444 31.25 181.444 35.75ZM243 14V48.5H236.283V14H243ZM128.522 14L107.841 50L87.1606 14H94.915L107.841 36.5L120.768 14H128.522ZM172.488 23V30.2675C171.741 30.05 170.95 29.9 170.1 29.9C165.764 29.9 162.637 32.9 162.637 37.4V48.5H155.919V23H162.637V29.9C162.637 26.09 167.047 23 172.488 23Z" fill="#2D2D2D" fill-opacity="0.7"/>
<g clip-path="url(#clip0_215_235)">
<path d="M54.27 4.28564L86.54 60.1796H22L54.27 4.28564Z" fill="#2D2D2D" fill-opacity="0.7"/>
</g>
<defs>
<clipPath id="clip0_215_235">
<rect width="64.54" height="64.54" fill="white" transform="translate(22)"/>
</clipPath>
</defs>
</svg>
